<svg width="805" height="708" viewBox="0 0 805 708" fill="none" xmlns="http://www.w3.org/2000/svg">
<path d="M10 70C10 36.8629 36.8629 10 70 10H735C768.137 10 795 36.8629 795 70V638C795 671.137 768.137 698 735 698H70C36.8629 698 10 671.137 10 638V70Z" fill="black"/>
<path d="M323.93 212.803L392.29 106.074C394.257 103.003 398.743 103.003 400.71 106.074L469.07 212.803C471.202 216.131 468.812 220.5 464.86 220.5H328.14C324.188 220.5 321.798 216.131 323.93 212.803Z" fill="white"/>
<path d="M396.5 191.5V565M70 698H735C768.137 698 795 671.137 795 638V70C795 36.8629 768.137 10 735 10H70C36.8629 10 10 36.8629 10 70V638C10 671.137 36.8629 698 70 698ZM392.29 106.074L323.93 212.803C321.798 216.131 324.188 220.5 328.14 220.5H464.86C468.812 220.5 471.202 216.131 469.07 212.803L400.71 106.074C398.743 103.003 394.257 103.003 392.29 106.074Z" stroke="white" stroke-width="20"/>
</svg>
