<svg width="2928" height="2923" viewBox="0 0 2928 2923" fill="none" xmlns="http://www.w3.org/2000/svg">
<path d="M2925 1461.5C2925 2267.01 2270.89 2920 1464 2920C657.112 2920 3 2267.01 3 1461.5C3 655.993 657.112 3 1464 3C2270.89 3 2925 655.993 2925 1461.5Z" fill="white"/>
<path d="M1390 1351L1362 1103L1250 1223L1142 1371L722 1395L334 1479L532 1607L556 1675L982 1763L1114 1855L1234 1907L1170 1763H1458L1686 1695L1794 1731L1854 1643H2050L2210 1607L2502 1875L2450 1731V1587L2522 1451L2682 1239L2450 1351L2238 1519H2026L1978 1451L1902 1479L1390 1351Z" fill="black"/>
<path d="M2925 1461.5C2925 2267.01 2270.89 2920 1464 2920C657.112 2920 3 2267.01 3 1461.5C3 655.993 657.112 3 1464 3C2270.89 3 2925 655.993 2925 1461.5Z" stroke="black" stroke-width="5"/>
<path d="M1390 1351L1362 1103L1250 1223L1142 1371L722 1395L334 1479L532 1607L556 1675L982 1763L1114 1855L1234 1907L1170 1763H1458L1686 1695L1794 1731L1854 1643H2050L2210 1607L2502 1875L2450 1731V1587L2522 1451L2682 1239L2450 1351L2238 1519H2026L1978 1451L1902 1479L1390 1351Z" stroke="black" stroke-width="5"/>
</svg>
