<svg width="785" height="688" viewBox="0 0 785 688" fill="none" xmlns="http://www.w3.org/2000/svg">
<path d="M0 60C0 26.8629 26.8629 0 60 0H725C758.137 0 785 26.8629 785 60V628C785 661.137 758.137 688 725 688H60C26.8629 688 0 661.137 0 628V60Z" fill="black"/>
<path d="M456.318 274.818C454.614 260.424 447.701 249.25 435.58 241.295C423.458 233.341 408.591 229.364 390.977 229.364C378.098 229.364 366.83 231.447 357.17 235.614C347.606 239.78 340.125 245.509 334.727 252.801C329.424 260.093 326.773 268.379 326.773 277.659C326.773 285.424 328.619 292.1 332.312 297.688C336.1 303.18 340.93 307.773 346.801 311.466C352.672 315.064 358.828 318.047 365.267 320.415C371.706 322.687 377.625 324.534 383.023 325.955L412.568 333.909C420.144 335.898 428.572 338.644 437.852 342.148C447.227 345.652 456.176 350.434 464.699 356.494C473.316 362.46 480.419 370.131 486.006 379.506C491.593 388.881 494.386 400.386 494.386 414.023C494.386 429.742 490.267 443.947 482.028 456.636C473.884 469.326 461.953 479.411 446.233 486.892C430.608 494.373 411.621 498.114 389.273 498.114C368.439 498.114 350.4 494.752 335.153 488.028C320.002 481.305 308.07 471.93 299.358 459.903C290.741 447.877 285.864 433.909 284.727 418H321.091C322.038 428.985 325.731 438.076 332.17 445.273C338.705 452.375 346.943 457.678 356.886 461.182C366.924 464.591 377.72 466.295 389.273 466.295C402.72 466.295 414.794 464.117 425.494 459.761C436.195 455.311 444.67 449.155 450.92 441.295C457.17 433.341 460.295 424.061 460.295 413.455C460.295 403.795 457.597 395.936 452.199 389.875C446.801 383.814 439.699 378.89 430.892 375.102C422.085 371.314 412.568 368 402.341 365.159L366.545 354.932C343.818 348.398 325.826 339.07 312.568 326.949C299.311 314.828 292.682 298.966 292.682 279.364C292.682 263.076 297.085 248.871 305.892 236.75C314.794 224.534 326.725 215.064 341.688 208.341C356.744 201.523 373.553 198.114 392.114 198.114C410.864 198.114 427.53 201.475 442.114 208.199C456.697 214.828 468.25 223.919 476.773 235.472C485.39 247.025 489.936 260.14 490.409 274.818H456.318Z" fill="white"/>
</svg>
